<?xml version="1.0" encoding="UTF-8"?>
<svg xmlns="http://www.w3.org/2000/svg" id="_Шар_1" data-name="Шар 1" viewBox="0 0 800 527.47">
  <defs>
    <style>
      .cls-1 {
        fill: #1d1e1c;
      }
    </style>
  </defs>
  <path class="cls-1" d="M89.84,273.46c-9.71-3.57-17.84-7.15-17.84-14.81,0-8.69,8.17-11.76,15.33-11.76,12.77,0,19.41,7.16,19.41,7.16l.51,1,5.63-9.71-.52-.51c-.51-.51-8.17-9.2-25.54-9.2-13.8,0-28.11,7.16-28.11,23,0,14.81,13.29,20.44,25.55,25,9.71,3.58,17.88,7.16,17.88,14.82,0,8.18-7.66,12.27-15.32,12.27-8.82,0-17.29-3.48-23.55-9.7v-.51l-6.64,9.19,.51,.51c2.22,2.43,4.81,4.5,7.66,6.14,6.84,3.95,14.59,6.07,22.49,6.13,16.35,0,28.1-9.71,28.1-23.51,0-15.33-13.29-20.95-25.55-25.55"></path>
  <path class="cls-1" d="M202.77,278.57c0,17.89-13.29,32.2-30.66,32.2s-30.66-14.31-30.66-32.2,13.28-31.16,30.66-31.16c4.06,.03,8.08,.85,11.82,2.43,3.74,1.58,7.13,3.89,9.98,6.78,2.85,2.89,5.1,6.32,6.62,10.09,1.52,3.77,2.28,7.79,2.24,11.86Zm-30.66-42.41c-24.53,0-43.43,18.91-43.43,42.41s18.9,43.44,43.43,43.44,43.43-18.91,43.43-43.44-19.42-42.41-43.43-42.41Z"></path>
  <path class="cls-1" d="M269.19,205.51c-1.68-.37-3.39-.54-5.11-.52-8.68,0-28.61,3.07-28.61,30.66v3.58h-11.24v10.22h11.24v70.51h12.26v-70.51h20.44v-10.22h-20.44v-3.07c0-7.15,2.05-19.41,17.37-19.41,1.21,0,2.42,.17,3.58,.51h1v-11.24l-.49-.51Z"></path>
  <path class="cls-1" d="M327.44,310.25h-1c-1.16,.35-2.37,.52-3.58,.52-6.64,0-17.88-2.56-17.88-20.95v-39.86h20.42v-10.73h-20.4v-23.5h-12.3v23.5h-10.7v10.73h10.7v40.88c0,27.08,18.39,31.17,29.12,31.17,1.71-.02,3.42-.19,5.11-.51h.51v-11.25Z"></path>
  <path class="cls-1" d="M352.48,295.44s9.2,9.19,22.48,9.19c5.62,0,10.73-2.55,10.73-7.66,0-12.26-39.85-10.73-39.85-37.3,0-15.33,13.79-24,31.68-24s27.59,9.2,27.59,9.2l-7.66,15.33c-5.6-4.65-12.65-7.19-19.93-7.18-5.11,0-10.22,2-10.22,7.66,0,11.75,39.85,10.22,39.85,36.79,0,13.8-11.75,24.53-31.68,24.53s-31.68-12.27-31.68-12.27l8.69-14.29Z"></path>
  <path class="cls-1" d="M477.67,268.87c-.51-11.25-7.16-16.87-16.35-16.87-10.73,0-17.89,6.65-19.42,16.87h35.77Zm-15.84-32.71c23.5,0,36.28,17.38,36.28,38.84,0,2.55-.51,7.66-.51,7.66h-56.72c1.53,14.31,12.26,22,24.52,22,13.29,0,23.51-9.19,23.51-9.19l7.66,14.81c-9.38,7.64-21.11,11.79-33.21,11.74-27.08,0-43.94-19.93-43.94-42.92,.51-25.55,17.88-42.93,42.41-42.93"></path>
  <path class="cls-1" d="M518.54,237.7h19.46v14.32c0,1.88-.17,3.77-.51,5.62h.51c3.58-11.75,13.29-21,26.06-21,1.21,0,2.42,.17,3.58,.52v19.92c-1.51-.34-3.05-.51-4.6-.51-8.69,0-18.4,5.11-22.48,17.38-1.56,4.07-1.56,8.71-1.56,13.31v32.7h-20.46v-82.26Z"></path>
  <path class="cls-1" d="M577.31,237.7h21.46l16.86,51.09c1.53,4.6,2.55,10.22,3.06,10.22h.52s1.53-5.62,3.06-10.22l16.86-51.09h21.46l-29.59,82.26h-24l-29.69-82.26Z"></path>
  <path class="cls-1" d="M722.93,268.87c-.51-11.25-7.15-16.87-16.35-16.87-10.73,0-17.88,6.65-19.42,16.87h35.77Zm-15.84-32.71c23.51,0,36.28,17.38,36.28,38.84,0,2.55-.51,7.66-.51,7.66h-56.72c1.54,14.31,12.27,22,24.53,22,13.28,0,23.5-9.19,23.5-9.19l7.67,14.81c-9.38,7.64-21.12,11.79-33.21,11.74-27.09,0-44-19.93-44-42.92,1-25.55,18.4-42.93,42.41-42.93"></path>
</svg>
